<?xml version="1.0" encoding="UTF-8" standalone="no"?><svg xmlns="http://www.w3.org/2000/svg" xmlns:xlink="http://www.w3.org/1999/xlink" contentStyleType="text/css" height="376px" preserveAspectRatio="none" style="width:1159px;height:376px;background:#FFFFFF;" version="1.1" viewBox="0 0 1159 376" width="1159px" zoomAndPan="magnify"><defs/><g><line style="stroke:#181818;stroke-width:1.5;" x1="63.5" x2="63.5" y1="64.4001" y2="84.4001"/><rect fill="#F1F1F1" height="34.4001" style="stroke:#181818;stroke-width:1.5;" width="107" x="10" y="84.4001"/><text fill="#000000" font-family="sans-serif" font-size="12" lengthAdjust="spacing" textLength="87" x="20" y="106.4002">Quản lý máy tính</text><line style="stroke:#181818;stroke-width:1.5;" x1="63.5" x2="73.5" y1="151.0003" y2="151.0003"/><rect fill="#F1F1F1" height="34.4001" style="stroke:#181818;stroke-width:1.5;" width="97" x="73.5" y="133.8002"/><text fill="#000000" font-family="sans-serif" font-size="12" lengthAdjust="spacing" textLength="77" x="83.5" y="155.8003">Thêm máy tính</text><line style="stroke:#181818;stroke-width:1.5;" x1="63.5" x2="73.5" y1="200.4004" y2="200.4004"/><rect fill="#F1F1F1" height="34.4001" style="stroke:#181818;stroke-width:1.5;" width="89" x="73.5" y="183.2003"/><text fill="#000000" font-family="sans-serif" font-size="12" lengthAdjust="spacing" textLength="69" x="83.5" y="205.2004">Sửa máy tính</text><line style="stroke:#181818;stroke-width:1.5;" x1="63.5" x2="73.5" y1="249.8005" y2="249.8005"/><rect fill="#F1F1F1" height="34.4001" style="stroke:#181818;stroke-width:1.5;" width="88" x="73.5" y="232.6004"/><text fill="#000000" font-family="sans-serif" font-size="12" lengthAdjust="spacing" textLength="68" x="83.5" y="254.6005">Xóa máy tính</text><line style="stroke:#181818;stroke-width:1.5;" x1="63.5" x2="63.5" y1="118.8002" y2="249.8005"/><line style="stroke:#181818;stroke-width:1.5;" x1="252" x2="252" y1="64.4001" y2="84.4001"/><rect fill="#F1F1F1" height="34.4001" style="stroke:#181818;stroke-width:1.5;" width="123" x="190.5" y="84.4001"/><text fill="#000000" font-family="sans-serif" font-size="12" lengthAdjust="spacing" textLength="103" x="200.5" y="106.4002">Quản lý khách hàng</text><line style="stroke:#181818;stroke-width:1.5;" x1="252" x2="262" y1="151.0003" y2="151.0003"/><rect fill="#F1F1F1" height="34.4001" style="stroke:#181818;stroke-width:1.5;" width="113" x="262" y="133.8002"/><text fill="#000000" font-family="sans-serif" font-size="12" lengthAdjust="spacing" textLength="93" x="272" y="155.8003">Thêm khách hàng</text><line style="stroke:#181818;stroke-width:1.5;" x1="252" x2="262" y1="200.4004" y2="200.4004"/><rect fill="#F1F1F1" height="34.4001" style="stroke:#181818;stroke-width:1.5;" width="105" x="262" y="183.2003"/><text fill="#000000" font-family="sans-serif" font-size="12" lengthAdjust="spacing" textLength="85" x="272" y="205.2004">Sửa khách hàng</text><line style="stroke:#181818;stroke-width:1.5;" x1="252" x2="262" y1="249.8005" y2="249.8005"/><rect fill="#F1F1F1" height="34.4001" style="stroke:#181818;stroke-width:1.5;" width="104" x="262" y="232.6004"/><text fill="#000000" font-family="sans-serif" font-size="12" lengthAdjust="spacing" textLength="84" x="272" y="254.6005">Xóa khách hàng</text><line style="stroke:#181818;stroke-width:1.5;" x1="252" x2="252" y1="118.8002" y2="249.8005"/><line style="stroke:#181818;stroke-width:1.5;" x1="450" x2="450" y1="64.4001" y2="84.4001"/><rect fill="#F1F1F1" height="34.4001" style="stroke:#181818;stroke-width:1.5;" width="110" x="395" y="84.4001"/><text fill="#000000" font-family="sans-serif" font-size="12" lengthAdjust="spacing" textLength="90" x="405" y="106.4002">Quản lý tài khoản</text><line style="stroke:#181818;stroke-width:1.5;" x1="450" x2="460" y1="151.0003" y2="151.0003"/><rect fill="#F1F1F1" height="34.4001" style="stroke:#181818;stroke-width:1.5;" width="100" x="460" y="133.8002"/><text fill="#000000" font-family="sans-serif" font-size="12" lengthAdjust="spacing" textLength="80" x="470" y="155.8003">Thêm tài khoản</text><line style="stroke:#181818;stroke-width:1.5;" x1="450" x2="460" y1="200.4004" y2="200.4004"/><rect fill="#F1F1F1" height="34.4001" style="stroke:#181818;stroke-width:1.5;" width="92" x="460" y="183.2003"/><text fill="#000000" font-family="sans-serif" font-size="12" lengthAdjust="spacing" textLength="72" x="470" y="205.2004">Sửa tài khoản</text><line style="stroke:#181818;stroke-width:1.5;" x1="450" x2="460" y1="249.8005" y2="249.8005"/><rect fill="#F1F1F1" height="34.4001" style="stroke:#181818;stroke-width:1.5;" width="91" x="460" y="232.6004"/><text fill="#000000" font-family="sans-serif" font-size="12" lengthAdjust="spacing" textLength="71" x="470" y="254.6005">Xóa tài khoản</text><line style="stroke:#181818;stroke-width:1.5;" x1="450" x2="450" y1="118.8002" y2="249.8005"/><line style="stroke:#181818;stroke-width:1.5;" x1="635.5" x2="635.5" y1="64.4001" y2="84.4001"/><rect fill="#F1F1F1" height="34.4001" style="stroke:#181818;stroke-width:1.5;" width="111" x="580" y="84.4001"/><text fill="#000000" font-family="sans-serif" font-size="12" lengthAdjust="spacing" textLength="91" x="590" y="106.4002">Quản lý giao dịch</text><line style="stroke:#181818;stroke-width:1.5;" x1="635.5" x2="645.5" y1="151.0003" y2="151.0003"/><rect fill="#F1F1F1" height="34.4001" style="stroke:#181818;stroke-width:1.5;" width="101" x="645.5" y="133.8002"/><text fill="#000000" font-family="sans-serif" font-size="12" lengthAdjust="spacing" textLength="81" x="655.5" y="155.8003">Thêm giao dịch</text><line style="stroke:#181818;stroke-width:1.5;" x1="635.5" x2="645.5" y1="200.4004" y2="200.4004"/><rect fill="#F1F1F1" height="34.4001" style="stroke:#181818;stroke-width:1.5;" width="93" x="645.5" y="183.2003"/><text fill="#000000" font-family="sans-serif" font-size="12" lengthAdjust="spacing" textLength="73" x="655.5" y="205.2004">Sửa giao dịch</text><line style="stroke:#181818;stroke-width:1.5;" x1="635.5" x2="645.5" y1="249.8005" y2="249.8005"/><rect fill="#F1F1F1" height="34.4001" style="stroke:#181818;stroke-width:1.5;" width="92" x="645.5" y="232.6004"/><text fill="#000000" font-family="sans-serif" font-size="12" lengthAdjust="spacing" textLength="72" x="655.5" y="254.6005">Xóa giao dịch</text><line style="stroke:#181818;stroke-width:1.5;" x1="635.5" x2="635.5" y1="118.8002" y2="249.8005"/><line style="stroke:#181818;stroke-width:1.5;" x1="806.5" x2="806.5" y1="64.4001" y2="84.4001"/><rect fill="#F1F1F1" height="34.4001" style="stroke:#181818;stroke-width:1.5;" width="80" x="766.5" y="84.4001"/><text fill="#000000" font-family="sans-serif" font-size="12" lengthAdjust="spacing" textLength="60" x="776.5" y="106.4002">Quản lý giá</text><line style="stroke:#181818;stroke-width:1.5;" x1="806.5" x2="816.5" y1="151.0003" y2="151.0003"/><rect fill="#F1F1F1" height="34.4001" style="stroke:#181818;stroke-width:1.5;" width="70" x="816.5" y="133.8002"/><text fill="#000000" font-family="sans-serif" font-size="12" lengthAdjust="spacing" textLength="50" x="826.5" y="155.8003">Thêm giá</text><line style="stroke:#181818;stroke-width:1.5;" x1="806.5" x2="816.5" y1="200.4004" y2="200.4004"/><rect fill="#F1F1F1" height="34.4001" style="stroke:#181818;stroke-width:1.5;" width="62" x="816.5" y="183.2003"/><text fill="#000000" font-family="sans-serif" font-size="12" lengthAdjust="spacing" textLength="42" x="826.5" y="205.2004">Sửa giá</text><line style="stroke:#181818;stroke-width:1.5;" x1="806.5" x2="816.5" y1="249.8005" y2="249.8005"/><rect fill="#F1F1F1" height="34.4001" style="stroke:#181818;stroke-width:1.5;" width="61" x="816.5" y="232.6004"/><text fill="#000000" font-family="sans-serif" font-size="12" lengthAdjust="spacing" textLength="41" x="826.5" y="254.6005">Xóa giá</text><line style="stroke:#181818;stroke-width:1.5;" x1="806.5" x2="806.5" y1="118.8002" y2="249.8005"/><line style="stroke:#181818;stroke-width:1.5;" x1="961" x2="961" y1="64.4001" y2="84.4001"/><rect fill="#F1F1F1" height="34.4001" style="stroke:#181818;stroke-width:1.5;" width="109" x="906.5" y="84.4001"/><text fill="#000000" font-family="sans-serif" font-size="12" lengthAdjust="spacing" textLength="89" x="916.5" y="106.4002">Báo cáo thống kê</text><line style="stroke:#181818;stroke-width:1.5;" x1="961" x2="971" y1="151.0003" y2="151.0003"/><rect fill="#F1F1F1" height="34.4001" style="stroke:#181818;stroke-width:1.5;" width="118" x="971" y="133.8002"/><text fill="#000000" font-family="sans-serif" font-size="12" lengthAdjust="spacing" textLength="98" x="981" y="155.8003">Báo cáo thành viên</text><line style="stroke:#181818;stroke-width:1.5;" x1="961" x2="971" y1="200.4004" y2="200.4004"/><rect fill="#F1F1F1" height="34.4001" style="stroke:#181818;stroke-width:1.5;" width="113" x="971" y="183.2003"/><text fill="#000000" font-family="sans-serif" font-size="12" lengthAdjust="spacing" textLength="93" x="981" y="205.2004">Báo cáo tài khoản</text><line style="stroke:#181818;stroke-width:1.5;" x1="961" x2="971" y1="249.8005" y2="249.8005"/><rect fill="#F1F1F1" height="34.4001" style="stroke:#181818;stroke-width:1.5;" width="170" x="971" y="232.6004"/><text fill="#000000" font-family="sans-serif" font-size="12" lengthAdjust="spacing" textLength="150" x="981" y="254.6005">Thống kê doanh thu theo tuần</text><line style="stroke:#181818;stroke-width:1.5;" x1="961" x2="971" y1="299.2006" y2="299.2006"/><rect fill="#F1F1F1" height="34.4001" style="stroke:#181818;stroke-width:1.5;" width="177" x="971" y="282.0005"/><text fill="#000000" font-family="sans-serif" font-size="12" lengthAdjust="spacing" textLength="157" x="981" y="304.0006">Thống kê doanh thu theo tháng</text><line style="stroke:#181818;stroke-width:1.5;" x1="961" x2="971" y1="348.6007" y2="348.6007"/><rect fill="#F1F1F1" height="34.4001" style="stroke:#181818;stroke-width:1.5;" width="171" x="971" y="331.4006"/><text fill="#000000" font-family="sans-serif" font-size="12" lengthAdjust="spacing" textLength="151" x="981" y="353.4007">Thống kê doanh thu theo năm</text><line style="stroke:#181818;stroke-width:1.5;" x1="961" x2="961" y1="118.8002" y2="348.6007"/><line style="stroke:#181818;stroke-width:1.5;" x1="63.5" x2="961" y1="64.4001" y2="64.4001"/><rect fill="#F1F1F1" height="34.4001" style="stroke:#181818;stroke-width:1.5;" width="107" x="458.75" y="10"/><text fill="#000000" font-family="sans-serif" font-size="12" lengthAdjust="spacing" textLength="87" x="468.75" y="32.0001">Quản lý quán net</text><line style="stroke:#181818;stroke-width:1.5;" x1="512.25" x2="512.25" y1="44.4001" y2="64.4001"/><!--MD5=[b73ecf2c176f917d78ee61158ef1bcbe]
@startwbs
* Quản lý quán net
** Quản lý máy tính
*** Thêm máy tính
*** Sửa máy tính
*** Xóa máy tính
** Quản lý khách hàng
*** Thêm khách hàng
*** Sửa khách hàng
*** Xóa khách hàng
** Quản lý tài khoản
*** Thêm tài khoản
*** Sửa tài khoản
*** Xóa tài khoản
** Quản lý giao dịch
*** Thêm giao dịch
*** Sửa giao dịch
*** Xóa giao dịch
** Quản lý giá
*** Thêm giá
*** Sửa giá
*** Xóa giá
** Báo cáo thống kê
*** Báo cáo thành viên
*** Báo cáo tài khoản
*** Thống kê doanh thu theo tuần
*** Thống kê doanh thu theo tháng
*** Thống kê doanh thu theo năm

@endwbs

PlantUML version 1.2022.5(Sat Apr 30 10:55:52 GMT 2022)
(GPL source distribution)
Java Runtime: OpenJDK Runtime Environment
JVM: OpenJDK 64-Bit Server VM
Default Encoding: UTF-8
Language: en
Country: US
--></g></svg>