<svg id="Layer_1" height="512" viewBox="0 0 512 512" width="512" xmlns="http://www.w3.org/2000/svg" data-name="Layer 1"><path d="m496 78.99v254.35h-480v-254.35a28 28 0 0 1 28-28h424a28 28 0 0 1 28 28z" fill="#4a5160"/><path d="m304.25 385.77 10 55.64h-117.5l10-55.64z" fill="#b0b5ca"/><path d="m334.71 440h-157.42a16.613 16.613 0 0 0 -16.29 16.41v4.59h190v-4.59a16.613 16.613 0 0 0 -16.29-16.41z" fill="#ccd3df"/><path d="m74 51h-30a27.99 27.99 0 0 0 -28 27.99v254.01h30v-254.01a27.99 27.99 0 0 1 28-27.99z" fill="#383e49"/><path d="m16 331v25.77a30.2 30.2 0 0 0 30 30.23h422a28.2 28.2 0 0 0 28-28.23v-27.77z" fill="#ccd3df"/><circle cx="256" cy="359.02" fill="#4a5160" r="11"/><path d="m46 356.77v-25.77h-30v25.77a30.2 30.2 0 0 0 30 30.23h30a30.2 30.2 0 0 1 -30-30.23z" fill="#acb4bf"/><path d="m46 80.99h420v218.78h-420z" fill="#80aaff"/><path d="m397.012 247.44a6 6 0 0 1 -4.243-10.242l17.824-17.824a6 6 0 0 1 8.486 8.485l-17.824 17.824a5.986 5.986 0 0 1 -4.243 1.757z" fill="#7299d6"/><path d="m401.4 271.652a6 6 0 0 1 -4.243-10.243l37.652-37.652a6 6 0 0 1 8.486 8.486l-37.657 37.657a5.982 5.982 0 0 1 -4.238 1.752z" fill="#7299d6"/><g fill="#f4f8fc"><path d="m72.8 215.734a6 6 0 0 1 -6-6v-75.806a6 6 0 0 1 12 0v75.806a6 6 0 0 1 -6 6z"/><path d="m72.8 119.547a6 6 0 0 1 -6-6v-4.834a6 6 0 0 1 12 0v4.834a6 6 0 0 1 -6 6z"/></g></svg>